<mxfile host="app.diagrams.net" modified="2024-07-11T09:51:00.373Z" agent="Mozilla/5.0 (Windows NT 10.0; Win64; x64; rv:127.0) Gecko/20100101 Firefox/127.0" version="24.4.13" etag="wWdW2cSJRndTc5j2eMGD" type="github">
  <diagram name="Page-1" id="xZSUqLC1O5UInKG4f6U1">
    <mxGraphModel>
      <root>
        <mxCell id="0" />
        <mxCell id="1" parent="0" />
      </root>
    </mxGraphModel>
  </diagram>
</mxfile>
